<mxfile host="app.diagrams.net" modified="2023-09-07T10:05:13.739Z" agent="Mozilla/5.0 (Windows NT 10.0; Win64; x64; rv:109.0) Gecko/20100101 Firefox/117.0" version="21.7.2" etag="4cNxbE9fFuwGCnkbYtNL" type="github">
  <diagram name="Страница — 1" id="wB9MNzM8dvCd7WIDIsHS">
    <mxGraphModel>
      <root>
        <mxCell id="0" />
        <mxCell id="1" parent="0" />
      </root>
    </mxGraphModel>
  </diagram>
</mxfile>
